<?xml version="1.0" standalone="no"?>
<!DOCTYPE svg PUBLIC "-//W3C//DTD SVG 20010904//EN"
 "http://www.w3.org/TR/2001/REC-SVG-20010904/DTD/svg10.dtd">
<svg version="1.0" xmlns="http://www.w3.org/2000/svg"
 width="256.000000pt" height="264.000000pt" viewBox="0 0 256.000000 264.000000"
 preserveAspectRatio="xMidYMid meet">

<g transform="translate(0.000000,264.000000) scale(0.100000,-0.100000)"
fill="#ffffff" stroke="none">
<path d="M1163 2590 c-614 -78 -1073 -593 -1073 -1205 0 -532 335 -996 840
-1164 60 -19 212 -53 217 -47 1 1 -13 24 -32 51 -33 46 -40 50 -118 72 -365
105 -666 404 -771 767 -131 450 32 938 404 1215 201 150 426 224 675 224 248
0 475 -74 670 -220 191 -143 324 -326 399 -553 114 -345 52 -728 -165 -1021
-156 -211 -419 -381 -664 -429 -79 -15 -125 -30 -125 -39 0 -5 5 -23 11 -40
11 -32 13 -33 57 -26 141 21 311 82 432 155 115 69 178 120 270 216 167 177
271 385 315 628 24 132 17 373 -15 491 -98 368 -346 671 -671 818 -203 93
-450 133 -656 107z"/>
<path d="M1860 2003 c-8 -3 -55 -36 -105 -73 -118 -87 -165 -116 -165 -98 0 7
30 33 65 57 59 39 65 47 65 77 0 19 -5 34 -11 34 -6 0 -51 -36 -100 -79 -115
-102 -159 -123 -269 -129 -69 -3 -117 3 -260 31 -96 20 -192 38 -212 42 -72
11 -225 6 -288 -10 -59 -15 -68 -15 -133 1 -84 20 -81 23 -127 -104 -119 -330
-80 -670 110 -959 41 -62 175 -213 190 -213 4 0 35 55 68 123 66 135 133 218
224 280 58 40 174 87 213 87 36 0 32 -29 -5 -42 -101 -35 -251 -125 -273 -163
-10 -19 52 -172 115 -282 75 -131 187 -311 229 -368 20 -27 48 -73 62 -101 37
-73 58 -84 167 -84 109 0 130 9 130 54 0 49 -25 66 -96 66 l-59 0 -79 234
c-78 229 -79 235 -73 307 8 101 57 290 100 380 56 121 113 165 250 193 70 15
84 15 143 1 81 -19 123 -19 148 0 11 8 31 15 45 15 31 0 111 83 111 115 0 12
-18 56 -40 97 -22 42 -45 100 -51 130 -14 66 -30 92 -89 145 -26 23 -53 56
-60 72 -11 27 -9 35 10 66 12 19 30 41 39 48 20 14 46 57 34 56 -4 0 -15 -3
-23 -6z"/>
</g>
</svg>
