<?xml version="1.0" standalone="no"?>
<!DOCTYPE svg PUBLIC "-//W3C//DTD SVG 20010904//EN"
 "http://www.w3.org/TR/2001/REC-SVG-20010904/DTD/svg10.dtd">
<svg version="1.0" xmlns="http://www.w3.org/2000/svg"
 width="100.000000pt" height="103.000000pt" viewBox="0 0 100.000000 103.000000"
 preserveAspectRatio="xMidYMid meet">

<g transform="translate(0.000000,103.000000) scale(0.100000,-0.100000)"
fill="#000000" stroke="none">
<path d="M411 999 c-165 -32 -322 -185 -360 -350 -26 -109 -5 -249 49 -344 35
-61 130 -154 185 -183 32 -16 137 -52 152 -52 2 0 -1 9 -7 20 -6 11 -19 20
-29 20 -10 0 -50 16 -88 35 -234 117 -315 414 -173 633 165 256 538 269 722
27 65 -85 83 -143 83 -270 0 -103 -2 -114 -32 -178 -59 -124 -192 -232 -312
-252 -25 -4 -41 -12 -41 -21 0 -18 14 -18 81 2 72 21 133 57 197 117 103 98
148 217 139 370 -4 78 -9 98 -46 172 -97 196 -303 297 -520 254z"/>
<path d="M628 745 c-45 -42 -90 -55 -154 -44 -27 4 -75 13 -106 18 -85 15
-219 6 -231 -15 -17 -31 -37 -118 -37 -164 1 -97 43 -206 107 -274 l36 -38 23
47 c12 26 35 60 51 77 30 32 92 68 118 68 29 0 15 -17 -34 -39 -75 -34 -77
-40 -42 -113 17 -35 59 -106 93 -158 62 -94 64 -95 103 -95 33 0 40 3 40 20 0
15 -7 20 -25 20 -21 0 -28 10 -52 75 -15 41 -30 87 -34 103 -8 36 21 163 46
205 27 44 80 66 140 58 56 -7 107 8 115 35 8 25 -32 126 -62 158 -28 28 -29
48 -5 74 9 11 -7 3 -36 -18 -29 -21 -56 -34 -60 -30 -4 3 0 11 8 15 36 22 42
28 39 38 -2 6 -20 -4 -41 -23z"/>
</g>
</svg>
